<?xml version="1.0" encoding="UTF-8"?>
<svg enable-background="new 0 0 841.89 595.28" viewBox="0 0 841.89 595.28" xmlns="http://www.w3.org/2000/svg" xmlns:xlink="http://www.w3.org/1999/xlink">
    <defs>
        <path id="m" d="m137.31 239.08c-5.062-4.26-13.359-10.349-16.812-23.01-3.75-13.75-4.698-18.511-4.172-31.026 0.672-15.974 9.922-29.724 24.755-42.417l31.245 66.417-35.016 30.036z"/>
        <path id="e" d="m141.33 219.9c-8.501-5.162-16.334-11.994-18.825-16.668-4.748-8.907-6.868-17-4.841-27.827l10.086-31.836 18.5-3.75 27 60-31.92 20.081z"/>
        <path id="d" d="m251.75,188.826 41.118-20.694 21.121,23.306-30.989,16.383-31.25-18.995zm155.459-75.215c19.536-3.792 34.841-1.187 45.916,7.815l-5.625,4.145-12-6.5-17.25,17.25-.29.153-10.751-22.863zm-27.84,10.988 16.04-8.072c3.134-.927 6.175-1.714 9.124-2.361l11.075,23.552-16.463,8.703-19.776-21.822zm-40.01,20.135 37.547-18.896 19.814,21.864-36.963,19.541-20.398-22.509z"/>
        <path id="c" d="m398.55 100.62-4.394-15.241 60.583 4.584 0.01 14.856z"/>
        <path id="b" d="m370.79 106.54 13.957-6.471 9.438 14-12.98 6.203-10.415-13.732zm-30.585 14.181 28.175-13.063 7.21 9.508-7.093 3.662 3.25 4.214-20.445 10.312-11.097-14.633zm-28.769 13.338 26.358-12.221 11.151 14.704-9.448 4.766-3.75-4.048-7.75 3.996 3.25 4.213-8.07 4.071-11.741-15.481zm-59.144 27.423 56.733-26.305 11.794 15.552-23.073 11.638-3.75-4.048-8.75 4.5 3.25 4.213-23.143 11.673-13.061-17.223zm-8.88 27.786-13.415-17.449 19.884-9.219 13.116 17.294-19.585 9.374z"/>
        <path id="r" d="m393 65.321 42.75 2.277v16.5l-42.75-2.277z"/>
        <path id="q" d="m362.56 82.282 12.435-5.711 18.75 24.75-12.204 5.99-18.981-25.029zm-25.541 11.732 23.124-10.622 19.023 25.083-22.722 11.153-19.425-25.614zm-29.938 13.752 27.521-12.642 19.468 25.67-27.042 13.274-19.947-26.302zm-27.426 12.598 25.009-11.488 19.989 26.358-24.574 12.062-20.424-26.932zm-27.426 12.597 25.009-11.488 20.467 26.987-24.574 12.062-20.902-27.561zm-53.734 27.36 51.318-26.249 20.944 27.617-37.264 18.683-34.998-20.051z"/>
        <path id="p" d="m285.25 208.07 137.75-71.25 250.25 139.75-125.75 95.249-25.25 10.25-29-6.75z"/>
        <path id="o" d="m421 144.07 241 138-134 107.5-67-12-173.5-165.5z"/>
        <path id="n" d="m467.64 125.18-13.142-7.108 13.5-10 11.098 5.652-11.456 11.456zm26.607 14.393-23.362-12.637 11.523-11.525 23.854 12.148-12.015 12.014zm28.392 15.358-25.146-13.603 12.082-12.083 25.674 13.075-12.61 12.611zm32.611 17.639-29.366-15.884 12.678-12.678 29.981 15.269-13.293 13.293zm34.394 18.605-31.15-16.85 13.361-13.361 31.803 16.197-14.014 14.014zm35.856 19.395-32.61-17.64 14.082-14.082 33.294 16.956-14.766 14.766zm32.285 17.464-29.041-15.709 14.834-14.833 29.65 15.1-15.443 15.442zm47.213 25.538-43.967-23.783 15.51-15.511 33.957 17.293-5.5 22.001z"/>
        <path id="l" d="m497.04 100.49-27.036-13.672 5.336-6.89 26.895 13.712-5.195 6.85zm33.128 16.752-29.9-15.12 5.284-6.794 29.759 15.134-5.143 6.78zm38.928 19.685-35.693-18.05 5.231-6.727 35.544 18.076-5.082 6.701zm41.377 20.924-38.135-19.284 5.17-6.647 37.981 19.315-5.016 6.616zm45.27 22.893-42.017-21.248 5.104-6.562 41.859 21.287-4.946 6.523zm39.427 19.937-36.168-18.29 5.031-6.469 36.021 18.318-4.884 6.441zm18.959 9.762-15.692-8.11 4.968-6.388 10.85 5.123-0.126 9.375z"/>
        <path id="k" d="m483.52 118.31-25.273-13.242 10.75-15 25.942 13.183-11.419 15.059zm32.799 17.186-29.852-15.64 11.656-14.985 29.898 15.193-11.702 15.432zm38.542 20.194-35.593-18.649 11.943-15.357 35.686 18.134-12.036 15.872zm40.966 21.465-38.016-19.919 12.283-15.793 38.123 19.373-12.39 16.339zm44.822 23.485-41.867-21.937 12.644-16.257 42.001 21.344-12.778 16.85zm39.036 20.452-36.084-18.907 13.039-16.764 36.161 18.376-13.116 17.295zm23.812 12.477-20.86-10.93 13.382-17.206 17.978 9.136-10.5 19z"/>
        <path id="j" d="m711.5 194.3 14.81-9.154c-31.702-40.297-65.376-63.103-109.32-83.571-52.167-24.298-104.87-35.87-148.74-48l-22.75 10.5 266 130.22z"/>
        <path id="i" d="m295.95 166.58 40.32-20.293 20.446 22.561-39.694 20.985z"/>
        <path id="h" d="m453 118.57 17.434 9.397-10.988 12.282 4.59 2.536-8.974 8.974-24.062-13.439 22-19.75zm13.289 25.46 6.83 3.773 11.101-12.406 26.045 14.038-11.31 12.641 5.017 2.771-9.13 9.129-37.535-20.964 8.982-8.982zm39.938 22.063 6.402 3.538 11.422-12.765 36.377 19.608-11.714 13.091 6.306 3.484-9.328 9.328-48.604-27.146 9.139-9.138zm51.048 28.202 5.113 2.825 11.824-13.215 37.984 20.474-12.13 13.557 6.807 3.76-9.53 9.53-49.406-27.594 9.338-9.337zm51.854 28.646 6.498 3.59 12.256-13.698 30.555 16.469-12.503 13.973 6.995 3.865-9.709 9.709-43.631-24.369 9.539-9.539zm46.056 25.444 6.31 3.486 12.629-14.114 25.627 13.813-25.25 22.75-29.034-16.216 9.718-9.719zm-97.542-64.946 5.111-5.712 9.258 4.991-5.143 5.748-9.226-5.027zm-50.018-27.244 4.938-5.521 9.259 4.991-4.971 5.556-9.226-5.026zm-39.961-21.765 4.803-5.367 9.259 4.99-4.834 5.403-9.228-5.026zm142.17 77.44 5.29-5.913 10.217 5.507-5.324 5.951-10.183-5.545zm46.214 25.172 5.449-6.09 10.217 5.507-5.483 6.128-10.183-5.545z"/>
        <path id="g" d="m499.78 252.38a36.125 20 0 1 0 -72.25 0 36.125 20 0 1 0 72.25 0"/>
        <path id="f" d="m430.19 149.98 241 138-134 107.5-67-12-173.5-165.5z"/>
        <clipPath id="y">
            <use xlink:href="#m"/>
        </clipPath>
        <clipPath id="u">
            <use xlink:href="#e"/>
        </clipPath>
        <clipPath id="t">
            <use xlink:href="#d"/>
        </clipPath>
        <clipPath id="s">
            <use xlink:href="#c"/>
        </clipPath>
        <clipPath id="ah">
            <use xlink:href="#b"/>
        </clipPath>
        <clipPath id="ag">
            <use xlink:href="#r"/>
        </clipPath>
        <clipPath id="af">
            <use xlink:href="#q"/>
        </clipPath>
        <clipPath id="ae">
            <use xlink:href="#p"/>
        </clipPath>
        <clipPath id="ad">
            <use xlink:href="#o"/>
        </clipPath>
        <clipPath id="ac">
            <use xlink:href="#n"/>
        </clipPath>
        <clipPath id="ab">
            <use xlink:href="#l"/>
        </clipPath>
        <clipPath id="aa">
            <use xlink:href="#k"/>
        </clipPath>
        <clipPath id="a">
            <use xlink:href="#j"/>
        </clipPath>
        <clipPath id="z">
            <use xlink:href="#i"/>
        </clipPath>
        <clipPath id="x">
            <use xlink:href="#h"/>
        </clipPath>
        <clipPath id="w">
            <use xlink:href="#g"/>
        </clipPath>
        <clipPath id="v">
            <use xlink:href="#f"/>
        </clipPath>
    </defs>
    <path d="m767.5 268.57v2l-69 159.5c-95.368 108.14-187.1 127.91-288 67.5l-334.5-273.5v-2l691.5 46.5z" fill="#546b81"/>
    <path d="m748.5 257.57 19 11-69 159.5c-95.368 108.14-187.1 127.91-288 67.5l-334.5-273.5 77-45 595.5 80.5z" fill="#6f8195"/>
    <use fill="#c0bbc3" xlink:href="#m"/>
    <g clip-path="url(#y)">
        <use fill="#3a3234" xlink:href="#e"/>
        <g clip-path="url(#u)" fill="#d7d6d6">
            <path d="m129.17 159.4c-5.329 3.493-8.833 5.506-11.671 13.172l0.164-1.493c2.837-7.666 6.341-9.68 11.671-13.172l-0.164 1.493z"/>
            <path d="m127 174.4c-5.329 3.493-10.668 6.681-10.334 15.002l-0.5-1.255c-0.334-8.322 5.005-11.509 10.334-15.002l0.5 1.255z"/>
            <path d="m120.84 202.73c-0.333-8.321 3.839-12.006 9.168-15.5l0.665 1.178c-5.329 3.493-8.999 7.168-8.665 15.49l-1.168-1.168z"/>
        </g>
    </g>
    <path d="m445.77 464.45-17.73 13.693c66.459 43.955 141.54 38.924 196.52-8.547l77.154-66.694 47.479-110.49-14.847-5.695 7.07 5.629-6.188 14.064-6.268 13.896-6.392 15.506-6.515 15.752-7.505 15.877-4.351 11.373-20.265 17.78-15.381 13.199-15.753 13.524-16.123 13.648-16.743 13.692-25.485 15.629-33.237 11.174-37.401 3.342-37.197-3.219-35.421-12.287-5.421-0.849z" fill="#61758a"/>
    <path d="m135.12 226.2 6.875 38.125 7.617-3.81-2.492-13.69 15.75-8.125-19.375-15.5z" fill="#c2bcbb"/>
    <path d="m135.12 226.2 6.875 38.125-1-0.75-6.875-38.25z" fill="#d7d6d6"/>
    <path d="m153.5 247.57 3.292-1.765-0.918-4.735 5.375-2.25 255.54 207.22-0.235 29.293-12.184-10.764-243.82-195.71-10.942-8.353-2.939-15.294 6.002 2.071z" fill="#546b81"/>
    <path d="m387 416.44 12.125 7.875 0.5 14.125-12.75-10z" fill="#b3acab"/>
    <path d="m421.5,444.07 .625,38.25 13.75-10.375-8.875-19.375z" fill="#c2bcbb"/>
    <path d="m453.38 106.45 0.75 10.375 8.5-6.25z" fill="#546b81"/>
    <path d="m703.14 251.79 6.22-52.085 14.932 5.153 1.068 47.644z" fill="#6f8195"/>
    <path d="m240.25 178.32 155-76.75 56.75 16.5-19.75 25.25-15.5-3.5-133.75 68z" fill="#748084"/>
    <use fill="#e4e2e1" xlink:href="#d"/>
    <g clip-path="url(#t)" fill="none" stroke="#a5afbe" stroke-miterlimit="3.8637" stroke-width=".5">
        <path d="m251.75 188.83 143.5-72.251c26.399-7.844 46.233-5.762 59.503 6.246"/>
        <path d="m254 190.17 142.16-71.632c25.749-7.651 45.096-5.62 58.038 6.092"/>
        <path d="m256.25 191.52 140.82-71.013c25.099-7.458 43.957-5.478 56.573 5.938"/>
        <path d="m258.5 192.86 139.48-70.395c24.449-7.265 42.819-5.336 55.108 5.785"/>
        <path d="m260.75 194.21 138.15-69.776c23.799-7.071 41.681-5.194 53.644 5.631"/>
        <path d="m263 195.56 136.81-69.157c23.15-6.878 40.543-5.053 52.179 5.478"/>
        <path d="m265.25 196.9 135.47-68.538c22.499-6.686 39.405-4.911 50.714 5.323"/>
        <path d="m267.5 198.25 134.13-67.919c21.851-6.492 38.267-4.769 49.25 5.169"/>
        <path d="m269.75 199.59 132.8-67.301c21.2-6.299 37.129-4.627 47.785 5.016"/>
        <path d="m272 200.94 131.46-66.682c20.55-6.106 35.991-4.485 46.321 4.862"/>
        <path d="m274.25 202.28 130.12-66.063c19.9-5.913 34.853-4.343 44.855 4.708"/>
        <path d="m276.5 203.63 128.78-65.445c19.25-5.72 33.714-4.202 43.39 4.555"/>
        <path d="m278.75 204.98 127.45-64.826c18.601-5.526 32.577-4.06 41.926 4.401"/>
        <path d="m281 206.32 126.11-64.207c17.95-5.334 31.438-3.918 40.461 4.247"/>
    </g>
    <path d="m435.5 129.82 10.375 5.125v-8.549l-10.375-5.125z" fill="#395165"/>
    <path d="m420.75 136.32v-2.5l14.75-14.75v10.75z" fill="#546b81"/>
    <path d="m435.5 119.07 10.375 5.125v2.201l-10.375-5.125z" fill="#6f8195"/>
    <path d="m392.26 102.9 63.678 3.132-0.248-22.169-65.708 1.329z" fill="#748084"/>
    <use fill="#8e4239" xlink:href="#c"/>
    <g clip-path="url(#s)" fill="none" stroke="#a3594b" stroke-miterlimit="3.8637" stroke-width=".5">
        <path d="m395.25 99.571c26.247-6.581 46.08-5.29 59.5 3.875"/>
        <path d="m394.52 97.679c26.247-6.581 47.092-5.149 60.511 4.015"/>
        <path d="m393.8 95.788c26.247-6.581 48.104-5.01 61.522 4.154"/>
        <path d="m393.07 93.896c26.247-6.581 49.114-4.87 62.534 4.294"/>
        <path d="m392.35 92.004c26.247-6.581 50.125-4.73 63.544 4.434"/>
        <path d="m391.62 90.113c26.247-6.581 51.137-4.59 64.556 4.574"/>
        <path d="m390.9 88.222c26.247-6.581 52.148-4.451 65.568 4.713"/>
        <path d="m390.17 86.33c26.247-6.581 53.159-4.311 66.579 4.853"/>
    </g>
    <path d="m368.5 120.83 7.093-3.663-2e-3 3.254-7.091 3.662z" fill="#546b81"/>
    <path d="m328 141.26 7.75-3.996v3.253l-7.75 3.996z" fill="#546b81"/>
    <path d="m285.25 162.82 8.75-4.5v3.253l-8.75 4.501z" fill="#546b81"/>
    <use fill="#8e4239" xlink:href="#b"/>
    <g clip-path="url(#ah)" fill="none" stroke="#a3594b" stroke-miterlimit="3.8637" stroke-width=".5">
        <path d="m230.54 174.73 154.21-74.655"/>
        <path d="m232.38 176.8 153.72-74.733"/>
        <path d="m234.22 178.88 153.23-74.81"/>
        <path d="m236.06 180.96 152.74-74.888"/>
        <path d="m237.9 183.04 152.25-74.966"/>
        <path d="m239.74 185.11 151.76-75.044"/>
        <path d="m241.58 187.19 151.26-75.122"/>
        <path d="m243.42 189.27 150.77-75.199"/>
    </g>
    <path d="m265.75 166.07-59.25 3.75-3.5-7 166.5-84.25 16.25 28.25z" fill="#748084"/>
    <path d="m395.25 99.571-3e-3 17.004c26.399-7.844 46.233-5.762 59.503 6.246v-19.375c-13.848-8.974-33.681-10.266-59.5-3.875z" fill="#c8c3ba"/>
    <path d="m373.75 70.571h19.079v31h-19.079z" fill="#a7948a"/>
    <path d="m383.29 86.071" fill="#a7948a"/>
    <path d="m743.75 274.32c19.625-18.875 13.75-42-16.75-59.75l2.5 57.25 14.25 2.5z" fill="#b3acab"/>
    <path d="m418.7 439.59 8.515-22.711 28.9 17.182 31.381 10.066 34.066 3.099 33.033-2.893 30.347-9.653 20.714-12.188 87.98-71.68 43.609-102.12c6.318 5.988 8.855 13.442 7.611 22.36l-6.02 11.297-6.188 14.064-6.267 13.896-6.392 15.506-6.515 15.752-7.506 15.877-4.35 11.373-19.154 17.161-15.506 13.198-15.752 13.648-16 13.4-16.619 13.57-26.723 16.494-33.237 11.174-37.401 3.342-37.197-3.219-35.422-12.287-29.907-15.713z" fill="#3a3234"/>
    <path d="m657.36 380.46c5.751 6.438 8.624 12.885 8.618 19.342l2.189-0.951c0.199-6.598-2.756-13.236-8.867-19.916l-1.94 1.525z" fill="#d7d6d6"/>
    <path d="m672.375,367.57c5.734,5.551 8.97,12.211 8.981,19.029l2.253-.559c.199-6.599-2.756-13.237-8.867-19.916l-2.367,1.446z" fill="#d7d6d6"/>
    <path d="m435.75,84.098v-16.5l19.75.454-.379,17.139z" fill="#e20916"/>
    <use fill="#1a171b" xlink:href="#r"/>
    <g clip-path="url(#ag)" fill="#147b4f">
        <path d="m387.62 58.945h23.5v27.125h-23.5z"/>
        <path d="m399.38 72.508"/>
    </g>
    <path d="m393 65.321 61 3.25v-5l-61-3.25z" fill="#e4e2e1"/>
    <path d="m385.8 104.63 9.45-1.809v13.75l-9.45-4.488z" fill="#a7948a"/>
    <path d="m752.25 273.07-8.75 14 0.25-12.75 11.5-21s-2 18.75-3 19.75z" fill="#c2bcbb"/>
    <use fill="#8e4239" xlink:href="#q"/>
    <g clip-path="url(#af)" fill="none" stroke="#a3594b" stroke-miterlimit="3.8637" stroke-width=".5">
        <path d="m233.5 180.37 160.25-79.051"/>
        <path d="m231.08 178.87 161.42-79.197"/>
        <path d="m228.66 177.36 162.58-79.344"/>
        <path d="m226.25 175.86 163.75-79.491"/>
        <path d="m223.83 174.36 164.92-79.638"/>
        <path d="m221.42 172.85 166.08-79.784"/>
        <path d="m219 171.35 167.25-79.931"/>
        <path d="m216.58 169.85 168.42-80.077"/>
        <path d="m214.17 168.34 169.58-80.223"/>
        <path d="m211.75 166.84 170.75-80.37"/>
        <path d="m209.33 165.34 171.92-80.517"/>
        <path d="m206.92 163.83 173.08-80.664"/>
        <path d="m204.5 162.33 174.25-80.81"/>
        <path d="m202.08 160.83 175.42-80.956"/>
        <path d="m199.67 159.32 176.58-81.103"/>
        <path d="m197.25 157.82 177.75-81.25"/>
    </g>
    <path d="m456.07 103.85 11.181-17.09 4.75-6.687-16.438-8.688z" fill="#a7948a"/>
    <path d="m454.75 104.82v-3.026l9.311-10.131v-2.616l7.888-9.795 3.85 2.244-14.99 24.26z" fill="#d7d6d6"/>
    <path d="m135 186.32 13.63 17.89 52.532-36.375-2.162-2.765-1.5-3.5-0.25-3.75 2.75-4.25 3-3.25 4.75-2.5 37.75-18 155.75-72.251-38.75-17.5-192.25 86.001-16.5 9-13.25 12-7.25 12.25-2.75 13.5z" fill="#d7d6d6"/>
    <path d="m177.16 183.84-8.022-8.809-3.46-8 1.457-8.728 4.358-8 8.364-7.272 9.639-5.815 192.36-88.546" fill="none" stroke="#b3acab" stroke-miterlimit="3.8637" stroke-width=".5"/>
    <path d="m177.92 183.99-7.778-8.96-3.46-8 1.457-8.728 4.358-8 8.364-7.272 9.639-5.815 192.36-88.546" fill="none" stroke="#e4e2e1" stroke-miterlimit="3.8637" stroke-width=".5"/>
    <path d="m431 138.32 16.666-16.924 11.841-11.161 243.66 127.17-0.499 18.662-27.84 20.839z" fill="#748084"/>
    <use fill="#879121" xlink:href="#p"/>
    <g clip-path="url(#ae)" fill="none" stroke="#fff" stroke-miterlimit="3.8637" stroke-width=".5">
        <g clip-path="url(#ad)">
            <path d="m423.25 144.07a2.25 2.25 0 1 0 -4.5 0 2.25 2.25 0 1 0 4.5 0"/>
            <path d="m421 144.07"/>
        </g>
        <use xlink:href="#o"/>
    </g>
    <path d="m674.5 278.57-19-10.612v-4.25l19 10.612z" fill="#c2bcbb"/>
    <use fill="#8e4239" xlink:href="#n"/>
    <g clip-path="url(#ac)" fill="none" stroke="#a3594b" stroke-miterlimit="3.8637" stroke-width=".5">
        <path d="m433 106.2 272 147.38"/>
        <path d="m436.5 106.38 269.05 144.99"/>
        <path d="m440 106.57 266.1 142.6"/>
        <path d="m443.5 106.76 263.15 140.21"/>
        <path d="m447 106.95 260.2 137.82"/>
        <path d="m450.5 107.13 257.25 135.44"/>
        <path d="m454 107.32 254.3 133.05"/>
        <path d="m457.5 107.51 251.35 130.66"/>
        <path d="m461 107.7 248.4 128.28"/>
        <path d="m464.5 107.88 245.45 125.89"/>
        <path d="m468 108.07 242.5 123.5"/>
    </g>
    <path d="m454.75 108.08 3e-3 -3.254 12.34-14.84v-1.943l5.756-7.663 241.9 112.7-0.75 20.5-3.75 13.75-6.5 11.75z" fill="#748084"/>
    <use fill="#8e4239" xlink:href="#l"/>
    <g clip-path="url(#ab)" fill="none" stroke="#a3594b" stroke-miterlimit="3.8637" stroke-width=".5">
        <path d="m469.24 86.357 244.89 124.09"/>
        <path d="m470.5 84.895 243.65 123.68"/>
        <path d="m471.77 83.433 242.4 123.26"/>
        <path d="m473.04 81.97 241.16 122.85"/>
        <path d="m474.3 80.508 239.92 122.44"/>
        <path d="m475.57 79.046 238.68 122.02"/>
    </g>
    <use fill="#8e4239" xlink:href="#k"/>
    <g clip-path="url(#aa)" fill="none" stroke="#a3594b" stroke-miterlimit="3.8637" stroke-width=".5">
        <path d="m458.25 105.07 245.25 128.5"/>
        <path d="m459.23 103.71 245.23 128.14"/>
        <path d="m460.2 102.34 245.2 127.77"/>
        <path d="m461.18 100.98 245.18 127.41"/>
        <path d="m462.16 99.616 245.16 127.04"/>
        <path d="m463.14 98.252 245.14 126.68"/>
        <path d="m464.11 96.889 245.12 126.32"/>
        <path d="m465.09 95.525 245.09 125.95"/>
        <path d="m466.07 94.161 245.07 125.59"/>
        <path d="m467.04 92.798 245.05 125.23"/>
        <path d="m468.02 91.434 245.02 124.86"/>
        <path d="m469 90.071 245 124.5"/>
    </g>
    <path d="m418.7 439.59 0.594 23.881c66.458 43.955 147.7 43.601 202.69-3.869l77.153-66.694 44.665-108.4 1.059-13.454-6.02 11.297-6.188 14.064-6.267 13.896-6.392 15.506-6.515 15.752-7.506 15.877-4.35 11.373-20.267 17.779-15.382 13.199-15.752 13.524-16.122 13.649-16.743 13.692-25.485 15.629-33.237 11.174-37.401 3.342-37.197-3.219-35.422-12.287-29.911-15.715z" fill="#d7d6d6"/>
    <path d="m705.28 199.36 23.405-15.405c-29.917-40.297-65.786-68.762-108.47-87.102-55.257-23.742-102.21-33.493-148.12-45.065l-30.215 13.917 263.4 133.66z" fill="#e4e2e1"/>
    <use fill="#6f8195" xlink:href="#j"/>
    <path d="m567.25 123.57 54.75-25.25v2l-54.75 25.25z" clip-path="url(#a)" fill="#61758a"/>
    <path d="m569 126.57 54.75-25.25-1.75-1-54.75 25.25z" clip-path="url(#a)" fill="#7f8ea1"/>
    <path d="m567.25 125.57 54.75-25.25" clip-path="url(#a)" fill="none" stroke="#486178" stroke-miterlimit="3.8637" stroke-width=".5"/>
    <path d="m714.75 193.07 13.94-9.119-2.94 11.119-11.5 6z" fill="#d7d6d6"/>
    <path d="m716.75 237.82 14.75 7.5-5.75-50.25-11.5 6z" fill="#e4e2e1"/>
    <path d="m431.91 412.74-4.694 4.133 28.9 17.182 31.381 10.066 34.066 3.099 33.034-2.893 30.346-9.653 20.714-12.188 87.981-71.679 44.752-104-8-2.066-40.207 86.348-5.992 14.404-52.694 42.629-31.587 27.719-22.967 11.041-32 9.859-32.413 0.826-23.587-3.718-29.372-12.489-22.14-5.107z" fill="#e4e2e1"/>
    <path d="m489.34 437.8-30.328-10.297-21.578-11.248 57.066-47.186 5.9 3.055 7.381 2.479 8.619 0.826 8.207-0.412 8.207-3.1 2.686-1.348 181.25-132.75 14.75 7.5-45 102.75-86.125 69.875-19.975 11.212-28.281 9.447-31.379 2.066z" fill="#d7d6d6"/>
    <path d="m456.12 434.06 44.281-61.934" fill="none" stroke="#fff" stroke-miterlimit="3.8637" stroke-width=".5"/>
    <path d="m487.5 444.12 20.281-69.521" fill="none" stroke="#fff" stroke-miterlimit="3.8637" stroke-width=".5"/>
    <path d="m521.57 447.22-5.166-71.794" fill="none" stroke="#fff" stroke-miterlimit="3.8637" stroke-width=".5"/>
    <path d="m554.6 444.33-29.993-69.313" fill="none" stroke="#fff" stroke-miterlimit="3.8637" stroke-width=".5"/>
    <path d="m584.95 434.68-52.132-62.76" fill="none" stroke="#fff" stroke-miterlimit="3.8637" stroke-width=".5"/>
    <path d="m605.66 422.49-70.16-51.92" fill="none" stroke="#fff" stroke-miterlimit="3.8637" stroke-width=".5"/>
    <path d="m693.64 350.81-66.601-46.807" fill="none" stroke="#fff" stroke-miterlimit="3.8637" stroke-width=".5"/>
    <path d="m725.29 276.91-35.353-20.017" fill="none" stroke="#fff" stroke-miterlimit="3.8637" stroke-width=".5"/>
    <path d="m433.82 420.9c-5.356 5.445-8.612 12.724-9.769 21.834" fill="none" stroke="#e4e2e1" stroke-miterlimit="3.8637" stroke-width=".5"/>
    <path d="m436.81 422.66c-5.166 5.474-8.309 12.761-9.428 21.861" fill="none" stroke="#e4e2e1" stroke-miterlimit="3.8637" stroke-width=".5"/>
    <path d="m439.8 424.43c-4.976 5.502-8.005 12.797-9.087 21.888" fill="none" stroke="#e4e2e1" stroke-miterlimit="3.8637" stroke-width=".5"/>
    <path d="m442.79 426.2c-4.785 5.529-7.701 12.834-8.746 21.914" fill="none" stroke="#e4e2e1" stroke-miterlimit="3.8637" stroke-width=".5"/>
    <path d="m445.78 427.97c-4.595 5.557-7.396 12.87-8.404 21.94" fill="none" stroke="#e4e2e1" stroke-miterlimit="3.8637" stroke-width=".5"/>
    <path d="m448.78 429.74c-4.404 5.584-7.092 12.906-8.063 21.967" fill="none" stroke="#e4e2e1" stroke-miterlimit="3.8637" stroke-width=".5"/>
    <path d="m451.77 431.51c-4.213 5.611-6.788 12.943-7.722 21.993" fill="none" stroke="#e4e2e1" stroke-miterlimit="3.8637" stroke-width=".5"/>
    <path d="m482.76 442.68c-3.213 9.451-4.59 17.188-4.133 23.211" fill="none" stroke="#e4e2e1" stroke-miterlimit="3.8637" stroke-width=".5"/>
    <path d="m479.13 441.51c-3.328 8.906-4.861 16.586-4.596 23.041" fill="none" stroke="#e4e2e1" stroke-miterlimit="3.8637" stroke-width=".5"/>
    <path d="m475.51 440.35c-3.444 8.361-5.132 15.985-5.061 22.871" fill="none" stroke="#e4e2e1" stroke-miterlimit="3.8637" stroke-width=".5"/>
    <path d="m471.88 439.19c-3.561 7.816-5.402 15.385-5.524 22.7" fill="none" stroke="#e4e2e1" stroke-miterlimit="3.8637" stroke-width=".5"/>
    <path d="m468.25 438.03c-3.676 7.272-5.672 14.783-5.988 22.53" fill="none" stroke="#e4e2e1" stroke-miterlimit="3.8637" stroke-width=".5"/>
    <path d="m464.63 436.86c-3.793 6.729-5.943 14.182-6.453 22.359" fill="none" stroke="#e4e2e1" stroke-miterlimit="3.8637" stroke-width=".5"/>
    <path d="m461 435.7c-3.908 6.184-6.213 13.58-6.916 22.189" fill="none" stroke="#e4e2e1" stroke-miterlimit="3.8637" stroke-width=".5"/>
    <path d="m516.044,446.95c-.388,1.249-.648,23.115-.567,23.813" fill="none" stroke="#e4e2e1" stroke-miterlimit="3.8637" stroke-width=".5"/>
    <path d="m512.22 446.6c-0.775 2.499-1.174 22.354-1.011 23.753" fill="none" stroke="#e4e2e1" stroke-miterlimit="3.8637" stroke-width=".5"/>
    <path d="m508.39 446.24c-1.161 3.749-1.697 21.594-1.453 23.69" fill="none" stroke="#e4e2e1" stroke-miterlimit="3.8637" stroke-width=".5"/>
    <path d="m504.56 445.89c-1.549 4.998-2.223 20.833-1.896 23.629" fill="none" stroke="#e4e2e1" stroke-miterlimit="3.8637" stroke-width=".5"/>
    <path d="m500.73 445.54c-1.936 6.246-2.746 20.071-2.34 23.566" fill="none" stroke="#e4e2e1" stroke-miterlimit="3.8637" stroke-width=".5"/>
    <path d="m496.91 445.18c-2.322 7.496-3.271 19.311-2.781 23.504" fill="none" stroke="#e4e2e1" stroke-miterlimit="3.8637" stroke-width=".5"/>
    <path d="m493.08 444.83c-2.711 8.746-3.796 18.55-3.226 23.443" fill="none" stroke="#e4e2e1" stroke-miterlimit="3.8637" stroke-width=".5"/>
    <path d="m549.45 444.92c2.196 6.306 3.287 16.109 3.303 23.442" fill="none" stroke="#e4e2e1" stroke-miterlimit="3.8637" stroke-width=".5"/>
    <path d="m545.67 445.27c1.883 5.406 2.8 17.221 2.813 23.506" fill="none" stroke="#e4e2e1" stroke-miterlimit="3.8637" stroke-width=".5"/>
    <path d="m541.89 445.61c1.569 4.504 2.312 18.329 2.324 23.566" fill="none" stroke="#e4e2e1" stroke-miterlimit="3.8637" stroke-width=".5"/>
    <path d="m538.11 445.95c1.254 3.604 1.824 19.439 1.834 23.629" fill="none" stroke="#e4e2e1" stroke-miterlimit="3.8637" stroke-width=".5"/>
    <path d="m534.33 446.3c0.94 2.702 1.337 20.548 1.344 23.69" fill="none" stroke="#e4e2e1" stroke-miterlimit="3.8637" stroke-width=".5"/>
    <path d="m530.547,446.638c.627,1.802.85,21.657.855,23.753" fill="none" stroke="#e4e2e1" stroke-miterlimit="3.8637" stroke-width=".5"/>
    <path d="m526.766,446.98c.314.9.363,22.767.366,23.814" fill="none" stroke="#e4e2e1" stroke-miterlimit="3.8637" stroke-width=".5"/>
    <path d="m580.01 436.23c4.834 8.98 7.036 16.498 6.607 22.555" fill="none" stroke="#e4e2e1" stroke-miterlimit="3.8637" stroke-width=".5"/>
    <path d="m576.65 437.36c4.502 8.727 6.57 16.283 6.205 22.672" fill="none" stroke="#e4e2e1" stroke-miterlimit="3.8637" stroke-width=".5"/>
    <path d="m573.29 438.49c4.17 8.475 6.104 16.07 5.804 22.791" fill="none" stroke="#e4e2e1" stroke-miterlimit="3.8637" stroke-width=".5"/>
    <path d="m569.92 439.62c3.838 8.22 5.638 15.855 5.4 22.908" fill="none" stroke="#e4e2e1" stroke-miterlimit="3.8637" stroke-width=".5"/>
    <path d="m566.56 440.75c3.506 7.968 5.172 15.644 4.999 23.027" fill="none" stroke="#e4e2e1" stroke-miterlimit="3.8637" stroke-width=".5"/>
    <path d="m563.2 441.89c3.174 7.713 4.706 15.429 4.597 23.145" fill="none" stroke="#e4e2e1" stroke-miterlimit="3.8637" stroke-width=".5"/>
    <path d="m559.83 443.02c2.842 7.461 4.239 15.216 4.193 23.264" fill="none" stroke="#e4e2e1" stroke-miterlimit="3.8637" stroke-width=".5"/>
    <path d="m605.15 422.46c5.112 5.283 8.171 12.004 9.176 20.162" fill="none" stroke="#e4e2e1" stroke-miterlimit="3.8637" stroke-width=".5"/>
    <path d="m602.43 424.09c5.12 5.848 8.075 12.677 8.866 20.486" fill="none" stroke="#e4e2e1" stroke-miterlimit="3.8637" stroke-width=".5"/>
    <path d="m599.71 425.72c5.128 6.412 7.979 13.35 8.557 20.812" fill="none" stroke="#e4e2e1" stroke-miterlimit="3.8637" stroke-width=".5"/>
    <path d="m597 427.35c5.136 6.977 7.885 14.022 8.247 21.136" fill="none" stroke="#e4e2e1" stroke-miterlimit="3.8637" stroke-width=".5"/>
    <path d="m594.28 428.98c5.144 7.54 7.789 14.694 7.938 21.461" fill="none" stroke="#e4e2e1" stroke-miterlimit="3.8637" stroke-width=".5"/>
    <path d="m591.56 430.62c5.15 8.105 7.693 15.367 7.629 21.786" fill="none" stroke="#e4e2e1" stroke-miterlimit="3.8637" stroke-width=".5"/>
    <path d="m588.84 432.25c5.158 8.669 7.598 16.039 7.319 22.111" fill="none" stroke="#e4e2e1" stroke-miterlimit="3.8637" stroke-width=".5"/>
    <path d="m622.67 409.09c5.784 6.271 8.774 12.905 8.97 19.902" fill="none" stroke="#e4e2e1" stroke-miterlimit="3.8637" stroke-width=".5"/>
    <path d="m620.11 411.12c5.648 5.96 8.673 12.59 9.073 19.889" fill="none" stroke="#e4e2e1" stroke-miterlimit="3.8637" stroke-width=".5"/>
    <path d="m617.55 413.15c5.513 5.649 8.571 12.276 9.176 19.876" fill="none" stroke="#e4e2e1" stroke-miterlimit="3.8637" stroke-width=".5"/>
    <path d="m614.99 415.18c5.376 5.34 8.469 11.961 9.278 19.863" fill="none" stroke="#e4e2e1" stroke-miterlimit="3.8637" stroke-width=".5"/>
    <path d="m612.43 417.21c5.24 5.03 8.368 11.647 9.382 19.851" fill="none" stroke="#e4e2e1" stroke-miterlimit="3.8637" stroke-width=".5"/>
    <path d="m737.25 248.7c5.977 5.578 8.75 13.176 7.611 22.36" fill="none" stroke="#e4e2e1" stroke-miterlimit="3.8637" stroke-width=".5"/>
    <path d="m736.35 250.78c5.939 5.488 8.725 13.065 7.583 22.092" fill="none" stroke="#e4e2e1" stroke-miterlimit="3.8637" stroke-width=".5"/>
    <path d="m735.46 252.86c5.898 5.397 8.696 12.954 7.553 21.823" fill="none" stroke="#e4e2e1" stroke-miterlimit="3.8637" stroke-width=".5"/>
    <path d="m734.56 254.95c5.859 5.307 8.67 12.842 7.524 21.555" fill="none" stroke="#e4e2e1" stroke-miterlimit="3.8637" stroke-width=".5"/>
    <path d="m733.67 257.03c5.821 5.217 8.644 12.731 7.496 21.287" fill="none" stroke="#e4e2e1" stroke-miterlimit="3.8637" stroke-width=".5"/>
    <path d="m732.77 259.11c5.781 5.126 8.615 12.62 7.466 21.018" fill="none" stroke="#e4e2e1" stroke-miterlimit="3.8637" stroke-width=".5"/>
    <path d="m730.1 265.1c5.797 5.187 8.703 12.568 7.512 20.594" fill="none" stroke="#e4e2e1" stroke-miterlimit="3.8637" stroke-width=".5"/>
    <path d="m729.21 267.13c5.85 5.338 8.814 12.688 7.582 20.5" fill="none" stroke="#e4e2e1" stroke-miterlimit="3.8637" stroke-width=".5"/>
    <path d="m728.31 269.16c5.903 5.489 8.928 12.81 7.656 20.406" fill="none" stroke="#e4e2e1" stroke-miterlimit="3.8637" stroke-width=".5"/>
    <path d="m727.42 271.2c5.958 5.641 9.041 12.931 7.73 20.312" fill="none" stroke="#e4e2e1" stroke-miterlimit="3.8637" stroke-width=".5"/>
    <path d="m726.52 273.23c6.01 5.792 9.152 13.053 7.801 20.219" fill="none" stroke="#e4e2e1" stroke-miterlimit="3.8637" stroke-width=".5"/>
    <path d="m723.62 279.79c5.938 5.895 9.005 13.38 7.781 20.146" fill="none" stroke="#e4e2e1" stroke-miterlimit="3.8637" stroke-width=".5"/>
    <path d="m722.75 281.88c5.812 5.845 8.931 13.21 7.875 19.792" fill="none" stroke="#e4e2e1" stroke-miterlimit="3.8637" stroke-width=".5"/>
    <path d="m721.88 283.98c5.686 5.796 8.857 13.041 7.969 19.437" fill="none" stroke="#e4e2e1" stroke-miterlimit="3.8637" stroke-width=".5"/>
    <path d="m721 286.07c5.559 5.748 8.783 12.872 8.062 19.083" fill="none" stroke="#e4e2e1" stroke-miterlimit="3.8637" stroke-width=".5"/>
    <path d="m720.12 288.16c5.432 5.699 8.709 12.703 8.156 18.729" fill="none" stroke="#e4e2e1" stroke-miterlimit="3.8637" stroke-width=".5"/>
    <path d="m717.23 294.89c5.185 5.462 8.537 12.118 8.273 18.313" fill="none" stroke="#e4e2e1" stroke-miterlimit="3.8637" stroke-width=".5"/>
    <path d="m716.33 297.09c5.062 5.273 8.311 11.954 8.17 18.502" fill="none" stroke="#e4e2e1" stroke-miterlimit="3.8637" stroke-width=".5"/>
    <path d="m715.44 299.29c4.941 5.084 8.088 11.789 8.067 18.691" fill="none" stroke="#e4e2e1" stroke-miterlimit="3.8637" stroke-width=".5"/>
    <path d="m714.54 301.49c4.82 4.896 7.864 11.623 7.966 18.88" fill="none" stroke="#e4e2e1" stroke-miterlimit="3.8637" stroke-width=".5"/>
    <path d="m713.65 303.69c4.697 4.706 7.639 11.457 7.861 19.068" fill="none" stroke="#e4e2e1" stroke-miterlimit="3.8637" stroke-width=".5"/>
    <path d="m710.69 310.2c4.811 4.886 7.662 11.356 7.812 18.953" fill="none" stroke="#e4e2e1" stroke-miterlimit="3.8637" stroke-width=".5"/>
    <path d="m709.75 312.38c5.046 5.254 7.916 11.877 7.874 19.105" fill="none" stroke="#e4e2e1" stroke-miterlimit="3.8637" stroke-width=".5"/>
    <path d="m708.81 314.7c5.28 5.622 8.171 12.273 7.936 19.133" fill="none" stroke="#e4e2e1" stroke-miterlimit="3.8637" stroke-width=".5"/>
    <path d="m707.81 316.94c5.515 5.99 8.488 12.73 8.059 19.223" fill="none" stroke="#e4e2e1" stroke-miterlimit="3.8637" stroke-width=".5"/>
    <path d="m706.88 319.38c5.749 6.358 8.742 13.002 8.12 19.125" fill="none" stroke="#e4e2e1" stroke-miterlimit="3.8637" stroke-width=".5"/>
    <path d="m704.11 326.29c5.816 6.62 8.381 12.827 7.69 18.62" fill="none" stroke="#e4e2e1" stroke-miterlimit="3.8637" stroke-width=".5"/>
    <path d="m703.11 328.74c5.65 6.515 8.193 12.688 7.629 18.518" fill="none" stroke="#e4e2e1" stroke-miterlimit="3.8637" stroke-width=".5"/>
    <path d="m702.11 331.19c5.483 6.408 8.006 12.547 7.566 18.414" fill="none" stroke="#e4e2e1" stroke-miterlimit="3.8637" stroke-width=".5"/>
    <path d="m701.11 333.64c5.316 6.302 7.818 12.405 7.504 18.31" fill="none" stroke="#e4e2e1" stroke-miterlimit="3.8637" stroke-width=".5"/>
    <path d="m700.11 336.09c5.15 6.197 7.631 12.266 7.442 18.207" fill="none" stroke="#e4e2e1" stroke-miterlimit="3.8637" stroke-width=".5"/>
    <path d="m691.87 352.13c5.916 6.701 8.758 11.319 8.124 18.599" fill="none" stroke="#e4e2e1" stroke-miterlimit="3.8637" stroke-width=".5"/>
    <path d="m693.49 350.75c5.916 6.701 8.767 10.79 8.133 18.069" fill="none" stroke="#e4e2e1" stroke-miterlimit="3.8637" stroke-width=".5"/>
    <path d="m694.58 348.27c5.605 6.497 8.442 10.988 7.999 17.834" fill="none" stroke="#e4e2e1" stroke-miterlimit="3.8637" stroke-width=".5"/>
    <path d="m695.66 345.8c5.295 6.295 8.118 11.188 7.865 17.6" fill="none" stroke="#e4e2e1" stroke-miterlimit="3.8637" stroke-width=".5"/>
    <path d="m696.75 343.32c4.984 6.09 7.795 11.385 7.731 17.364" fill="none" stroke="#e4e2e1" stroke-miterlimit="3.8637" stroke-width=".5"/>
    <path d="m639 395.4c6.079 6.662 9.034 13.301 8.866 19.916" fill="none" stroke="#e4e2e1" stroke-miterlimit="3.8637" stroke-width=".5"/>
    <path d="m636.65 397.4c6.048 6.646 9.003 13.285 8.867 19.916" fill="none" stroke="#e4e2e1" stroke-miterlimit="3.8637" stroke-width=".5"/>
    <path d="m634.3 399.4c6.016 6.63 8.971 13.269 8.866 19.915" fill="none" stroke="#e4e2e1" stroke-miterlimit="3.8637" stroke-width=".5"/>
    <path d="m631.94 401.4c5.983 6.613 8.939 13.252 8.866 19.916" fill="none" stroke="#e4e2e1" stroke-miterlimit="3.8637" stroke-width=".5"/>
    <path d="m629.59 403.39c5.952 6.598 8.907 13.236 8.866 19.916" fill="none" stroke="#e4e2e1" stroke-miterlimit="3.8637" stroke-width=".5"/>
    <path d="m655.04 382.41c5.812 6.479 8.698 12.957 8.66 19.438" fill="none" stroke="#e4e2e1" stroke-miterlimit="3.8637" stroke-width=".5"/>
    <path d="m652.73 384.37c5.871 6.519 8.772 13.029 8.702 19.533" fill="none" stroke="#e4e2e1" stroke-miterlimit="3.8637" stroke-width=".5"/>
    <path d="m650.42 386.32c5.932 6.558 8.846 13.102 8.743 19.628" fill="none" stroke="#e4e2e1" stroke-miterlimit="3.8637" stroke-width=".5"/>
    <path d="m648.1 388.28c5.991 6.598 8.919 13.173 8.784 19.724" fill="none" stroke="#e4e2e1" stroke-miterlimit="3.8637" stroke-width=".5"/>
    <path d="m645.79 390.23c6.051 6.639 8.992 13.245 8.825 19.82" fill="none" stroke="#e4e2e1" stroke-miterlimit="3.8637" stroke-width=".5"/>
    <path d="m670.5 369.86c5.797 5.739 8.684 11.999 8.66 18.781" fill="none" stroke="#e4e2e1" stroke-miterlimit="3.8637" stroke-width=".5"/>
    <path d="m668.26 371.68c5.859 5.927 8.76 12.263 8.701 19.008" fill="none" stroke="#e4e2e1" stroke-miterlimit="3.8637" stroke-width=".5"/>
    <path d="m666.02 373.49c5.922 6.115 8.836 12.527 8.742 19.236" fill="none" stroke="#e4e2e1" stroke-miterlimit="3.8637" stroke-width=".5"/>
    <path d="m663.78 375.3c5.985 6.303 8.913 12.791 8.783 19.463" fill="none" stroke="#e4e2e1" stroke-miterlimit="3.8637" stroke-width=".5"/>
    <path d="m661.54 377.12c6.049 6.491 8.99 13.055 8.825 19.689" fill="none" stroke="#e4e2e1" stroke-miterlimit="3.8637" stroke-width=".5"/>
    <path d="m685.89 357.14c5.948 6.697 8.698 12.97 8.247 18.818" fill="none" stroke="#e4e2e1" stroke-miterlimit="3.8637" stroke-width=".5"/>
    <path d="m683.66 358.94c5.98 6.693 8.771 13.039 8.371 19.037" fill="none" stroke="#e4e2e1" stroke-miterlimit="3.8637" stroke-width=".5"/>
    <path d="m681.43 360.73c6.014 6.689 8.845 13.108 8.495 19.257" fill="none" stroke="#e4e2e1" stroke-miterlimit="3.8637" stroke-width=".5"/>
    <path d="m679.2 362.53c6.047 6.686 8.919 13.178 8.619 19.477" fill="none" stroke="#e4e2e1" stroke-miterlimit="3.8637" stroke-width=".5"/>
    <path d="m676.97 364.33c6.078 6.682 8.992 13.248 8.742 19.695" fill="none" stroke="#e4e2e1" stroke-miterlimit="3.8637" stroke-width=".5"/>
    <path d="m454.76 433.28c-4.024 5.64-6.484 12.979-7.382 22.02l2.619 1.258c0.897-9.041 3.357-16.381 7.381-22.02l-2.618-1.258z" fill="#d7d6d6"/>
    <path d="m486.387,443.838c-3.098,9.995-4.32,17.789-3.669,23.381l2.866.639c-.651-5.592.571-13.386 3.668-23.381l-2.865-.639z" fill="#d7d6d6"/>
    <path d="m519.871,447.303-.123,23.877 3.113.019 .124-23.876z" fill="#d7d6d6"/>
    <path d="m553.232,444.58c2.51,7.207 3.773,15.002 3.793,23.382l3.236-.431c-.018-8.381-1.281-16.174-3.791-23.381l-3.238.43z" fill="#d7d6d6"/>
    <path d="m583.38 435.1c5.167 9.232 7.503 16.711 7.011 22.436l2.742-1.219c0.492-5.723-1.844-13.202-7.01-22.436l-2.743 1.219z" fill="#d7d6d6"/>
    <path d="m607.87 420.83c5.105 4.719 8.268 11.332 9.485 19.836l2-1.588c-1.218-8.506-4.38-15.117-9.485-19.838l-2 1.59z" fill="#d7d6d6"/>
    <path d="m625.23 407.06c5.921 6.581 8.877 13.22 8.867 19.916l2-1.669c0.01-6.695-2.946-13.334-8.867-19.915l-2 1.668z" fill="#d7d6d6"/>
    <path d="m641.36 393.41c6.11 6.679 9.066 13.317 8.866 19.916l2.124-1.218c0.2-6.599-2.756-13.237-8.866-19.916l-2.124 1.218z" fill="#d7d6d6"/>
    <path d="m688 230.78v-3.25l15.75 8.286v3.25z" fill="#b6a5af"/>
    <path d="m672.5 222.63-16.25-8.548v-3.251l16.25 8.549z" fill="#ced5d7"/>
    <path d="m640.25 205.66-27.75-14.6v-3.251l27.75 14.599z" fill="#0c274a"/>
    <path d="m688 230.78-15.5-8.155v-3.25l15.5 8.155z" fill="#c0684f"/>
    <path d="m656.25 214.08-16-8.417v-3.252l16 8.418z" fill="#d7bd61"/>
    <path d="m534.5 150.03-12-6.313v-3.254l12 6.313z" fill="#f1ae98"/>
    <path d="m612.5 191.06-78-41.034v-3.254l78 41.036z" fill="#41564b"/>
    <path d="m495.75 129.65-26.25-13.81v-3.255l26.25 13.81z" fill="#e4e2e1"/>
    <path d="m522.5 143.72-26.75-14.072v-3.255l26.75 14.073z" fill="#147b4f"/>
    <path d="m504.75 95.571h1v19.25h-1z" fill="#e4e2e1"/>
    <path d="m505.25 105.2" fill="#e4e2e1"/>
    <path d="m545.25 116.82h1v19.25h-1z" fill="#e4e2e1"/>
    <path d="m545.75 126.45" fill="#e4e2e1"/>
    <path d="m586.62 137.7h1v19.25h-1z" fill="#e4e2e1"/>
    <path d="m587.12 147.32" fill="#e4e2e1"/>
    <path d="m628.25 159.95h1v19.25h-1z" fill="#e4e2e1"/>
    <path d="m628.75 169.57" fill="#e4e2e1"/>
    <path d="m675.12 183.45h1v19.25h-1z" fill="#e4e2e1"/>
    <path d="m675.62 193.07" fill="#e4e2e1"/>
    <path d="m655.5 263.71v4.251l-14.5-8.098v-4.251z" fill="#d7bd61"/>
    <path d="m603 238.64-14.5-8.098v-4.252l14.5 8.098z" fill="#0c274a"/>
    <path d="m641 259.86-38-21.223v-4.252l38 21.224z" fill="#f1ae98"/>
    <path d="m538.5 202.62-11.25-6.283v-4.254l11.25 6.284z" fill="#0c274a"/>
    <path d="m527.25 196.33-35.25-19.687v-4.254l35.25 19.687z" fill="#d7d6d6"/>
    <path d="m476.25 167.85-22.25-12.426v-4.255l22.25 12.427z" fill="#d7d6d6"/>
    <path d="m588.5 230.54-50-27.925v-4.253l50 27.926z" fill="#f1ae98"/>
    <path d="m454 155.42-23.003-12.847 3e-3 -4.254 23 12.846z" fill="#147b4f"/>
    <path d="m492 176.64-15.75-8.797v-4.254l15.75 8.797z" fill="#ecbf4c"/>
    <path d="m199.75,166.321-.75-1.25-1.5-3.5-.25-3.75 2.75-4.25 3-3.25 4.75-2.5 37.75-18 155.75-72.251 3.75,7.751-192.413,91.521-3.813,1.821-2.003,1.639-1.092,1.809-.546,3.642z" fill="#c2bcbb"/>
    <path d="m401.25 57.57-38.75-17.5-192.25 86.001-16.5 9-13.25 12-7.25 12.25-2.75 13.5 4.5 13.5 14.083 14.874-4.375 3.923-15.208-16.547-4.5-14.75 2.75-14.75 7.25-12.5 14.75-13 17.25-9.5 191.5-86.001 4 2z" fill="#e7e6e5"/>
    <path d="m129.5 188.57 69.5-23.5 6.07-0.826" fill="none" stroke="#fff" stroke-miterlimit="3.8637" stroke-width=".5"/>
    <path d="m125 173.82 72.5-12.25 8.233 1.349" fill="none" stroke="#fff" stroke-miterlimit="3.8637" stroke-width=".5"/>
    <path d="m127.75 159.07 69.5-1.25 8.704 3.505" fill="none" stroke="#fff" stroke-miterlimit="3.8637" stroke-width=".5"/>
    <path d="m135 146.57 65 7 7.5 6.429" fill="none" stroke="#fff" stroke-miterlimit="3.8637" stroke-width=".5"/>
    <path d="m149.75 133.57 53.25 16.75 6.709 7.912" fill="none" stroke="#fff" stroke-miterlimit="3.8637" stroke-width=".5"/>
    <path d="m167 124.07 40.75 23.75 4.837 9.021" fill="none" stroke="#fff" stroke-miterlimit="3.8637" stroke-width=".5"/>
    <path d="m204.59 107.2 40.913 22.617 3.767 9.32" fill="none" stroke="#fff" stroke-miterlimit="3.8637" stroke-width=".5"/>
    <path d="m273.32 76.66 39.636 21.816 4.555 8.665" fill="none" stroke="#fff" stroke-miterlimit="3.8637" stroke-width=".5"/>
    <path d="m349.4 94.281 6.15 8.11-8.867 4.356-6.193-8.166 8.91-4.3zm-84.094 40.593 6.55 8.636-8.465 4.159-6.59-8.689 8.505-4.106zm43.249-20.877 6.344 8.366-8.346 4.101-6.384-8.418 8.386-4.049z" fill="#5d332b"/>
    <path d="m271.85 141.61v1.901l-8.466 4.159v-1.901z" fill="#b97568"/>
    <path d="m314.9 120.46v1.901l-8.346 4.1v-1.901z" fill="#b97568"/>
    <path d="m355.55 100.49v1.901l-8.867 4.357v-1.901z" fill="#b97568"/>
    <path d="m393 83.571 62.121 3.37v5l-62.121-3.37z" fill="#e20916"/>
    <path d="m393 83.571 62.121 3.37v-1.75l-62.121-3.37z" fill="#e4e2e1"/>
    <path d="m697.975,340.58c4.984,6.091 7.463,12.449 7.4,18.428l1.115-2.363c.062-5.979-2.631-12.297-7.615-18.387l-.9,2.322z" fill="#d7d6d6"/>
    <path d="m705.938,321.57c5.983,6.727 8.996,13.521 8.182,19.277l-1.244,2.16c.815-5.755-1.782-12.443-7.766-19.17l.828-2.267z" fill="#d7d6d6"/>
    <path d="m712.75 305.88c4.576 4.518 7.416 11.293 7.76 19.258l-1.134 1.668c-0.344-7.965-3.175-14.658-7.751-19.176l1.125-1.75z" fill="#d7d6d6"/>
    <path d="m719.25 290.26c5.306 5.65 8.635 12.534 8.25 18.375l-1 2.188c0.385-5.841-3.069-12.475-8.375-18.125l1.125-2.438z" fill="#d7d6d6"/>
    <path d="m732.19 298.2c1.392-6.951-1.623-14.557-7.688-20.5l1.125-2.438c6.064 5.943 9.267 13.174 7.875 20.125l-1.312 2.813z" fill="#d7d6d6"/>
    <path d="m731.88 261.2c5.742 5.036 8.59 12.509 7.438 20.75l-0.875 1.812c1.152-8.241-1.695-15.652-7.438-20.688l0.875-1.874z" fill="#d7d6d6"/>
    <path d="m696.24 373.94c0.5-5.697-2.207-11.898-8.123-18.599l1.694-1.796c5.916 6.701 9.054 13.355 8.553 19.053l-2.124 1.342z" fill="#d7d6d6"/>
    <path d="m297.75 162.37-3.75-4.048v3.253l3.75 4.049z" fill="#6f8195"/>
    <path d="m379.5 121.13-3.907-3.967-2e-3 3.254 3.909 3.966z" fill="#6f8195"/>
    <path d="m339.5 141.31-3.75-4.048v3.253l3.75 4.048z" fill="#6f8195"/>
    <path d="m454.94 71.141h1v34.89h-1z" fill="#e4e2e1"/>
    <path d="m469.5 115.84-14.753-7.761 3e-3 -3.254 14.75 7.76z" fill="#ecbf4c"/>
    <path d="m379.5 121.13 16-7.813-3e-3 3.254-15.997 7.812v-3.253zm-40 20.176 32.25-16.267v3.253l-32.25 16.267v-3.253zm-41.75 21.059 33.5-16.897v3.254l-33.5 16.898v-3.255zm-46 26.457v-3.255l36.75-18.537v3.254l-36.75 18.538z" fill="#61758a"/>
    <use fill="#8e4239" xlink:href="#i"/>
    <g clip-path="url(#z)" fill="none" stroke="#a3594b" stroke-miterlimit="3.8637">
        <path d="m251.75 188.83 143.5-72.251c26.399-7.844 46.233-5.762 59.503 6.246" stroke-width=".5"/>
        <path d="m254 190.17 142.16-71.632c25.749-7.651 45.096-5.62 58.038 6.092" stroke-width=".6154"/>
        <path d="m256.25 191.52 140.82-71.013c25.099-7.458 43.957-5.478 56.573 5.938" stroke-width=".7308"/>
        <path d="m258.5 192.86 139.48-70.395c24.449-7.265 42.819-5.336 55.108 5.785" stroke-width=".8462"/>
        <path d="m260.75 194.21 138.15-69.776c23.799-7.071 41.681-5.194 53.644 5.631" stroke-width=".9616"/>
        <path d="m263 195.56 136.81-69.157c23.15-6.878 40.543-5.053 52.179 5.478" stroke-width="1.0769"/>
        <path d="m265.25 196.9 135.47-68.538c22.499-6.686 39.405-4.911 50.714 5.323" stroke-width="1.1923"/>
        <path d="m267.5 198.25 134.13-67.919c21.851-6.492 38.267-4.769 49.25 5.169" stroke-width="1.3077"/>
        <path d="m269.75 199.59 132.8-67.301c21.2-6.299 37.129-4.627 47.785 5.016" stroke-width="1.4231"/>
        <path d="m272 200.94 131.46-66.682c20.55-6.106 35.991-4.485 46.321 4.862" stroke-width="1.5385"/>
        <path d="m274.25 202.28 130.12-66.063c19.9-5.913 34.853-4.343 44.855 4.708" stroke-width="1.6539"/>
        <path d="m276.5 203.63 128.78-65.445c19.25-5.72 33.714-4.202 43.39 4.555" stroke-width="1.7692"/>
        <path d="m278.75 204.98 127.45-64.826c18.601-5.526 32.577-4.06 41.926 4.401" stroke-width="1.8846"/>
        <path d="m281 206.32 126.11-64.207c17.95-5.334 31.438-3.918 40.461 4.247" stroke-width="2"/>
    </g>
    <path d="m427.22 416.88c-5.546 5.418-8.917 12.688-10.11 21.808l3.609 2.247c1.193-9.119 4.985-16.943 10.532-22.361l-4.031-1.694z" fill="#d7d6d6"/>
    <path d="m266.75 217.57-1-3.5 49.5-25.237v3.767z" fill="#ecbf4c"/>
    <path d="m405.25 142.95 13-6.627-3e-3 3.254-12.997 6.691z" fill="#f1ae98"/>
    <path d="m405.25 142.95v3.318l-10.75 5.534v-3.371z" fill="#0c274a"/>
    <path d="m337.25 177.62v3.658l-22 11.326v-3.767z" fill="#f1ae98"/>
    <path d="m385.25 153.14 9.25-4.716v3.371l-9.25 4.762z" fill="#41564b"/>
    <path d="m337.25 177.62 32.25-16.442v3.496l-32.25 16.604z" fill="#c2bcbb"/>
    <path d="m385.25 153.14v3.417l-15.75 8.109v-3.496z" fill="#147b4f"/>
    <path d="m243 178.57v-3.256l19.5-9.701v3.255z" fill="#ecbf4c"/>
    <path d="m363 115.62 20-9.95v3.253l-20 9.95z" fill="#41564b"/>
    <path d="m323.75 135.14 25.75-12.81v3.253l-25.75 12.811z" fill="#f1ae98"/>
    <path d="m281.25 156.29 27-13.432v3.253l-27 13.434z" fill="#ecbf4c"/>
    <path d="m363 115.62v3.253l-13.5 6.717v-3.253z" fill="#147b4f"/>
    <path d="m383 108.92v-3.253l12.25-6.094-3e-3 3.254z" fill="#0c274a"/>
    <path d="m281.25 156.29v3.255l-18.75 9.328v-3.255z" fill="#147b4f"/>
    <path d="m323.75 135.14v3.254l-15.5 7.711v-3.253z" fill="#e4e2e1"/>
    <path d="m511.5 356.39-90.954 73.772-284.46-220.14 79.409-53.045z" fill="#c0bbc3"/>
    <path d="m355.53 170.59h1v7.202h-1v-6.078l-16.06 8.226v6.613h-1v-6.962l-0.106-0.208z" fill="#e4e2e1"/>
    <use fill="#e4e2e1" xlink:href="#h"/>
    <g clip-path="url(#x)">
        <path d="m431 138.32 243.5 136" fill="none" stroke="#a5afbe" stroke-miterlimit="3.8637" stroke-width=".5"/>
        <path d="m432.38 137.09 243.7 135.81" fill="none" stroke="#a5afbe" stroke-miterlimit="3.8637" stroke-width=".5"/>
        <path d="m433.75 135.85 243.91 135.62" fill="none" stroke="#a5afbe" stroke-miterlimit="3.8637" stroke-width=".5"/>
        <path d="m435.12 134.62 244.11 135.44" fill="none" stroke="#a5afbe" stroke-miterlimit="3.8637" stroke-width=".5"/>
        <path d="m436.5 133.38 244.31 135.25" fill="none" stroke="#a5afbe" stroke-miterlimit="3.8637" stroke-width=".5"/>
        <path d="m437.88 132.15 244.52 135.06" fill="none" stroke="#a5afbe" stroke-miterlimit="3.8637" stroke-width=".5"/>
        <path d="m439.25 130.91 244.72 134.88" fill="none" stroke="#a5afbe" stroke-miterlimit="3.8637" stroke-width=".5"/>
        <path d="m440.62 129.68 244.92 134.69" fill="none" stroke="#a5afbe" stroke-miterlimit="3.8637" stroke-width=".5"/>
        <path d="m442 128.45 245.12 134.5" fill="none" stroke="#a5afbe" stroke-miterlimit="3.8637" stroke-width=".5"/>
        <path d="m443.38 127.21 245.33 134.31" fill="none" stroke="#a5afbe" stroke-miterlimit="3.8637" stroke-width=".5"/>
        <path d="m444.75 125.98 245.53 134.12" fill="none" stroke="#a5afbe" stroke-miterlimit="3.8637" stroke-width=".5"/>
        <path d="m446.12 124.74 245.73 133.94" fill="none" stroke="#a5afbe" stroke-miterlimit="3.8637" stroke-width=".5"/>
        <path d="m447.5 123.51 245.94 133.75" fill="none" stroke="#a5afbe" stroke-miterlimit="3.8637" stroke-width=".5"/>
        <path d="m448.88 122.27 246.14 133.56" fill="none" stroke="#a5afbe" stroke-miterlimit="3.8637" stroke-width=".5"/>
        <path d="m450.25 121.04 246.34 133.38" fill="none" stroke="#a5afbe" stroke-miterlimit="3.8637" stroke-width=".5"/>
        <path d="m451.62 119.8 246.55 133.19" fill="none" stroke="#a5afbe" stroke-miterlimit="3.8637" stroke-width=".5"/>
        <path d="m453 118.57 246.75 133" fill="none" stroke="#a5afbe" stroke-miterlimit="3.8637" stroke-width=".5"/>
        <path d="m466.82 132.74 12.475 6.772-2.227 2.403-12.707-6.899 2.459-2.276zm199.31 111.82-12.5-6.787 2.177-2.43 12.664 6.876-2.341 2.341zm-45.712-24.818-13.498-7.328 2.225-2.404 13.336 7.24-2.063 2.492zm-53.371-28.976-11.846-6.431 2.131-2.455 11.809 6.411-2.094 2.475zm-50.02-27.156-11.688-6.345 2.051-2.499 11.743 6.375-2.106 2.469z" fill="#c0684f"/>
    </g>
    <path d="m162.38 241.07 6.875 38.125 3-1.125-6-36.375z" fill="#c2bcbb"/>
    <path d="m162.38 241.07 6.875 38.125-1-0.75-6.875-38.25z" fill="#d7d6d6"/>
    <path d="m174.12 250.32 6.875 38.125 3-1.125-6-36.375z" fill="#c2bcbb"/>
    <path d="m174.12 250.32 6.875 38.125-1-0.75-6.875-38.25z" fill="#d7d6d6"/>
    <path d="m150.62 231.45 6.875 38.125 3-1.125-6-36.375z" fill="#c2bcbb"/>
    <path d="m150.62 231.45 6.875 38.125-1-0.75-6.875-38.25z" fill="#d7d6d6"/>
    <path d="m187.29 260.2 7.086 39.119 3-1.124-6-36.375z" fill="#c2bcbb"/>
    <path d="m187.29 260.2 7.086 39.119-1-0.749-7.086-39.245z" fill="#d7d6d6"/>
    <path d="m200.11 269.78 7.138 39.795 3-1.125-6-36.374z" fill="#d7d6d6"/>
    <path d="m200.11 269.78 7.138 39.795-1-0.75-7.138-39.92z" fill="#c2bcbb"/>
    <path d="m212.96 280.15 7.163 39.674 3-1.125-6-36.374z" fill="#d7d6d6"/>
    <path d="m212.96 280.15 7.163 39.674-1-0.75-7.163-39.799z" fill="#c2bcbb"/>
    <path d="m255.75 313.82 4.875 38.5 3-1.125-4-35.375z" fill="#c2bcbb"/>
    <path d="m255.75,313.82 4.875,38.5-1-.75-5.125-38.875z" fill="#d7d6d6"/>
    <path d="m241.5 302.57 4.875 38.5 3-1.125-4-35.375z" fill="#c2bcbb"/>
    <path d="m241.5,302.57 4.875,38.5-1-.75-5.125-38.875z" fill="#d7d6d6"/>
    <path d="m227.38 291.45 4.875 38.499 3-1.125-4-35.374z" fill="#c2bcbb"/>
    <path d="m227.38 291.45 4.875 38.499-1-0.75-5.125-38.874z" fill="#d7d6d6"/>
    <path d="m270 325.44 4.875 38.5 3-1.125-4-35.375z" fill="#c2bcbb"/>
    <path d="m270 325.44 4.875 38.5-1-0.75-5.125-38.875z" fill="#d7d6d6"/>
    <path d="m285.12 336.7 4 38.875 3-1.125-2.75-35.125z" fill="#c2bcbb"/>
    <path d="m285.12 336.7 4 38.875-1-0.75-4-38.625z" fill="#d7d6d6"/>
    <path d="m300.25 348.82 4 38.875 3-1.125-2.75-35.125z" fill="#c2bcbb"/>
    <path d="m300.25,348.82 4,38.875-1-.75-4-38.625z" fill="#d7d6d6"/>
    <path d="m315.38 360.94 4 38.875 3-1.125-2.75-35.125z" fill="#c2bcbb"/>
    <path d="m315.38 360.94 4 38.875-1-0.75-4.095-39.421z" fill="#d7d6d6"/>
    <path d="m331.88 373.94 3.25 38.5 2.625-1.375-1.625-34.5z" fill="#c2bcbb"/>
    <path d="m331.88 373.94 3.25 38.5-1-0.75-3.325-39.112z" fill="#d7d6d6"/>
    <path d="m348.43 386.38 3.316 39.32 2.625-1.375-1.625-34.5z" fill="#c2bcbb"/>
    <path d="m348.43 386.38 3.316 39.32-1-0.75-3.353-39.272z" fill="#d7d6d6"/>
    <path d="m365.34 399.65 2.532 39.046 2.625-1.125-0.875-34.375z" fill="#c2bcbb"/>
    <path d="m365.34 399.65 2.532 39.046-0.875-0.625-2.722-39.226z" fill="#d7d6d6"/>
    <path d="m382.75,413.82 1.5,38.125 2.875-1.125-.125-34.375z" fill="#c2bcbb"/>
    <path d="m382.75,413.82 1.5,38.125-.75-.625-1.793-38.814z" fill="#d7d6d6"/>
    <path d="m400 426.7 1.5 39 13.75 11.125 4.125-35.625z" fill="#c2bcbb"/>
    <path d="m400 426.7 1.5 39-0.75-0.625-1.75-38.875z" fill="#d7d6d6"/>
    <path d="m419.66 442.78 0.889-12.614-284.46-220.14 2.902 12.594z" fill="#d7d6d6"/>
    <path d="m418.12 441.32-4.625 2.625 1 0.5 4.75-2.125z" fill="#d7d6d6"/>
    <path d="m155 257.07 2.999-1.5 4.5 3.625-4.625 2.375z" fill="#546b81"/>
    <path d="m383,430.695 3.875-2.25 1.625,7-5.5-4.75zm-229.499-183.124 3.292-1.765 3.332,2.765-3.75,3.5-2.874-4.5zm11.249,9.625 4.875-2.625 .625,7.375-5.5-4.75zm12.125,10.125 5-2.875 .5,7.625-5.5-4.75zm12.875,10.125 4.375-3.25 1.5,7.5-5.875-4.25zm12.875,10.25 4.25-2.875 1.5,7.375-5.75-4.5zm12.875,10 5-2.625 1.5,7.75-6.5-5.125zm13.5,10.874 4.75-3 1,8.25-5.75-5.25zm14,10.875 4.75-3 .625,7.875-5.375-4.875zm14.375,11.5 5-3.25 .125,7.625-5.125-4.375zm14.125,11 4.875-2.625 .5,7.25-5.375-4.625zm14.375,11.625 5.5-3 .5,7.625-6-4.625zm15.375,12.625 5.25-3.5 .375,7.875-5.625-4.375zm15.625,12.125 5.125-3.625 .125,7.875-5.25-4.25zm15.875,12.625 4.25-2.75 1.125,6.875-5.375-4.125zm16.875,13 4.625-3v6.75l-4.625-3.75zm16.375,12.875 4.875-3.125 .5,8-5.375-4.875z" fill="#546b81"/>
    <path d="m383,441.195 5-3 .5,7.75-5.5-4.75zm-218.25-173.499 6.125-3.312c.873,4.458.664,7.146-.625,8.062l-5.5-4.75zm12.125,10.125 5.438-3.438c.766,2.511.787,5.24.062,8.188l-5.5-4.75zm12.875,10.125 6.25-3.75c.896,4.404.771,7.071-.375,8l-5.875-4.25zm12.875,10.25 5.75-3.75c1.667,4.355 1.667,7.105 0,8.25l-5.75-4.5zm12.875,9.999 6.25-3.188 .25,8.312-6.5-5.124zm13.5,10.875 5.062-3.188 .688,8.438-5.75-5.25zm14,10.875 5.625-3.562-.25,8.438-5.375-4.876zm14.375,11.5 6.375-4.125-1.25,8.5-5.125-4.375zm14.125,11 6.375-3.562-1,8.188-5.375-4.626zm14.375,11.625 5.5-3 .5,7.625-6-4.625zm15.375,12.625 5.25-3.5 .375,7.875-5.625-4.375zm15.625,12.125 5.125-3.625 .125,7.875-5.25-4.25zm15.875,12.625 4.25-2.75 1.125,6.875-5.375-4.125zm16.875,13 4.625-3v6.75l-4.625-3.75zm16.375,12.875 4.875-3.125 .5,8-5.375-4.875z" fill="#546b81"/>
    <path d="m414.5 444.44 1.396 39.347 3.854-2.972-0.5-38.5z" fill="#c2bcbb"/>
    <path d="m414.5 444.44 1.396 39.347-1.286-0.988-1.11-38.859z" fill="#d7d6d6"/>
    <path d="m421.5,444.07 .625,38.25-2.375-1.5-.5-38.5z" fill="#d7d6d6"/>
    <path d="m151.75 242.7-2.875 1.25 3.625 2.875z" fill="#546b81"/>
    <path d="m414.02 457.52-274.52-217.45 3.294-0.853 272.33 215.23z" fill="#8b4028"/>
    <path d="m414.02 457.52-274.52-217.45 0.116 0.913 274.24 217.17z" fill="#b35233"/>
    <path d="m415.23 468.7-273.92-219.63 0.07 0.733 273.76 219.53z" fill="#b35233"/>
    <path d="m415.23 468.7-273.92-219.63 3.012-0.911 271.1 216.79z" fill="#8b4028"/>
    <path d="m135.12 226.2 5.625-2.125-1.25-0.875-5.375 2.125z" fill="#d7d6d6"/>
    <path d="m179.59 183.21 285.96 204.32 22.363-17.634-285.14-197.96z" fill="none" stroke="#90191c" stroke-linecap="round" stroke-linejoin="round" stroke-miterlimit="3.8637" stroke-width="1.5"/>
    <path d="m535.5 210.48-128 75.094" fill="none" stroke="#fff" stroke-miterlimit="3.8637" stroke-width=".5"/>
    <path d="m535.5 210.48-128 75.094" fill="none" stroke="#fff" stroke-miterlimit="3.8637" stroke-width=".5"/>
    <g clip-path="url(#w)" fill="none" stroke="#fff" stroke-miterlimit="3.8637" stroke-width=".5">
        <g clip-path="url(#v)">
            <path d="m432.44 149.98a2.25 2.25 0 1 0 -4.5 0 2.25 2.25 0 1 0 4.5 0"/>
            <path d="m430.19 149.98"/>
        </g>
        <use xlink:href="#f"/>
    </g>
    <path d="m453.22 378.83c-50.635-58.107-85.19-100.21-135.82-137.57-49.076-36.215-86.419-54.324-131.78-53.796l-8-6.419c44.311-4.311 91.235 16.001 140.31 52.216 50.635 37.365 105.05 93.927 148.21 152.66l-2.056 1.256-10.853-8.344z" fill="#fff"/>
    <path d="m473.61 366.1c-50.635-58.107-85.365-99.162-136-136.53-49.076-36.215-86.946-52.216-132.31-51.689l-8-6.419c44.312-4.312 93.439 15.474 142.52 51.688 50.635 37.365 100.69 91.169 145.7 146.98l-3.059 1.719-8.845-5.753z" fill="#fff"/>
    <path d="m478.45 368.2-28.839 2.203l1.055-35.783-39.474-6.947 3.258-33.053-35.258-3.689 1.677-30.946-37.892-1.581 4.215-26.203-36.215 0.526 3.162-22.323-32.527 1.054 3.257-17.581-33.677 4.216 6.42-16-32.527 5.892 4.838-11.784-25.581 6.945 2.108-8" fill="none" stroke="#fff" stroke-linecap="round" stroke-linejoin="round" stroke-miterlimit="3.8637" stroke-width="2.8346"/>
    <path d="m194.14 182.1 22.946-8.527-1.581 12.838 28.312-8-6.42 14.85 33.054-5.796-5.892 15.473 35.258-2.204-5.893 20.311 37.269-0.526-5.796 23.473 37.27 1.053-3.689 27.689 37.892 2.731-2.203 31.473 37.892 6.324-2.635 33.676 37.893 6.946-4.839 31.378" fill="none" stroke="#fff" stroke-linecap="round" stroke-linejoin="round" stroke-miterlimit="3.8637" stroke-width="2.8346"/>
    <path d="m201.02 184.11 2.422 15.493" fill="none" stroke="#fff" stroke-linecap="round" stroke-linejoin="round" stroke-miterlimit="3.8637" stroke-width="1.0001"/>
    <path d="m212.96 186.53 3.054 22.12" fill="none" stroke="#fff" stroke-linecap="round" stroke-linejoin="round" stroke-miterlimit="3.8637" stroke-width="1.0001"/>
    <path d="m225.02 188.05 3.578 29.651" fill="none" stroke="#fff" stroke-linecap="round" stroke-linejoin="round" stroke-miterlimit="3.8637" stroke-width="1.0001"/>
    <path d="m237.98 192.61 3.199 34.139" fill="none" stroke="#fff" stroke-linecap="round" stroke-linejoin="round" stroke-miterlimit="3.8637" stroke-width="1.0001"/>
    <path d="m250.54 198.08 3.215 37.726" fill="none" stroke="#fff" stroke-linecap="round" stroke-linejoin="round" stroke-miterlimit="3.8637" stroke-width="1.0001"/>
    <path d="m264.51 204.56 1.823 40.299" fill="none" stroke="#fff" stroke-linecap="round" stroke-linejoin="round" stroke-miterlimit="3.8637" stroke-width="1.0001"/>
    <path d="m276.96 211.04 1.951 42.873" fill="none" stroke="#fff" stroke-linecap="round" stroke-linejoin="round" stroke-miterlimit="3.8637" stroke-width="1.0001"/>
    <path d="m290.04 218.02 1.461 44.938" fill="none" stroke="#fff" stroke-linecap="round" stroke-linejoin="round" stroke-miterlimit="3.8637" stroke-width="1.0001"/>
    <path d="m302.49 228.05 1.589 43.963" fill="none" stroke="#fff" stroke-linecap="round" stroke-linejoin="round" stroke-miterlimit="3.8637" stroke-width="1.0001"/>
    <path d="m315.05 236.05 1.604 45.014" fill="none" stroke="#fff" stroke-linecap="round" stroke-linejoin="round" stroke-miterlimit="3.8637" stroke-width="1.0001"/>
    <path d="m328.51 245.06 0.72 45.052" fill="none" stroke="#fff" stroke-linecap="round" stroke-linejoin="round" stroke-miterlimit="3.8637" stroke-width="1.0001"/>
    <path d="m339.95 253.06 1.863 46.105" fill="none" stroke="#fff" stroke-linecap="round" stroke-linejoin="round" stroke-miterlimit="3.8637" stroke-width="1.0001"/>
    <path d="m353.53 268.05 0.865 40.17" fill="none" stroke="#fff" stroke-linecap="round" stroke-linejoin="round" stroke-miterlimit="3.8637" stroke-width="1.0001"/>
    <path d="m366.49 277.06 0.486 40.208" fill="none" stroke="#fff" stroke-linecap="round" stroke-linejoin="round" stroke-miterlimit="3.8637" stroke-width="1.0001"/>
    <path d="m379.95 291.04-0.399 35.287" fill="none" stroke="#fff" stroke-linecap="round" stroke-linejoin="round" stroke-miterlimit="3.8637" stroke-width="1.0001"/>
    <path d="m393.53 305.51-1.398 29.861" fill="none" stroke="#fff" stroke-linecap="round" stroke-linejoin="round" stroke-miterlimit="3.8637" stroke-width="1.0001"/>
    <path d="m405.98 319.09-1.269 25.335" fill="none" stroke="#fff" stroke-linecap="round" stroke-linejoin="round" stroke-miterlimit="3.8637" stroke-width="1.0001"/>
    <path d="m418.22 337.02-0.93 16.452" fill="none" stroke="#fff" stroke-linecap="round" stroke-linejoin="round" stroke-miterlimit="3.8637" stroke-width="1.0001"/>
    <path d="m430.99 346.02-1.127 16.507" fill="none" stroke="#fff" stroke-linecap="round" stroke-linejoin="round" stroke-miterlimit="3.8637" stroke-width="1.0001"/>
    <path d="m232.56 180.34 2.692 15.448" fill="none" stroke="#fff" stroke-linecap="round" stroke-linejoin="round" stroke-miterlimit="3.8637" stroke-width="1.0001"/>
    <path d="m244.54 182.56 3.44 22.064" fill="none" stroke="#fff" stroke-linecap="round" stroke-linejoin="round" stroke-miterlimit="3.8637" stroke-width="1.0001"/>
    <path d="m256.62 183.87 4.094 29.583" fill="none" stroke="#fff" stroke-linecap="round" stroke-linejoin="round" stroke-miterlimit="3.8637" stroke-width="1.0001"/>
    <path d="m269.66 188.21 3.795 34.077" fill="none" stroke="#fff" stroke-linecap="round" stroke-linejoin="round" stroke-miterlimit="3.8637" stroke-width="1.0001"/>
    <path d="m282.31 193.45 3.874 37.664" fill="none" stroke="#fff" stroke-linecap="round" stroke-linejoin="round" stroke-miterlimit="3.8637" stroke-width="1.0001"/>
    <path d="m296.4 199.68 2.526 40.261" fill="none" stroke="#fff" stroke-linecap="round" stroke-linejoin="round" stroke-miterlimit="3.8637" stroke-width="1.0001"/>
    <path d="m308.96 205.94 2.7 42.832" fill="none" stroke="#fff" stroke-linecap="round" stroke-linejoin="round" stroke-miterlimit="3.8637" stroke-width="1.0001"/>
    <path d="m322.15 212.7 2.245 44.906" fill="none" stroke="#fff" stroke-linecap="round" stroke-linejoin="round" stroke-miterlimit="3.8637" stroke-width="1.0001"/>
    <path d="m334.77 222.51 2.356 43.928" fill="none" stroke="#fff" stroke-linecap="round" stroke-linejoin="round" stroke-miterlimit="3.8637" stroke-width="1.0001"/>
    <path d="m347.44 232.61 2.422 42.656" fill="none" stroke="#fff" stroke-linecap="round" stroke-linejoin="round" stroke-miterlimit="3.8637" stroke-width="1.0001"/>
    <path d="m362.04 244.56 0.565 39.544" fill="none" stroke="#fff" stroke-linecap="round" stroke-linejoin="round" stroke-miterlimit="3.8637" stroke-width="1.0001"/>
    <path d="m373.47 253.06 1.864 39.868" fill="none" stroke="#fff" stroke-linecap="round" stroke-linejoin="round" stroke-miterlimit="3.8637" stroke-width="1.0001"/>
    <path d="m387.05 267.54 1.021 34.22" fill="none" stroke="#fff" stroke-linecap="round" stroke-linejoin="round" stroke-miterlimit="3.8637" stroke-width="1.0001"/>
    <path d="m400.51 277.57 0.293 33.022" fill="none" stroke="#fff" stroke-linecap="round" stroke-linejoin="round" stroke-miterlimit="3.8637" stroke-width="1.0001"/>
    <path d="m413.47 293.06 0.07 26.361" fill="none" stroke="#fff" stroke-linecap="round" stroke-linejoin="round" stroke-miterlimit="3.8637" stroke-width="1.0001"/>
    <path d="m427.05 308.05-0.773 20.205" fill="none" stroke="#fff" stroke-linecap="round" stroke-linejoin="round" stroke-miterlimit="3.8637" stroke-width="1.0001"/>
    <path d="m438.99 319.6 0.022 17.486" fill="none" stroke="#fff" stroke-linecap="round" stroke-linejoin="round" stroke-miterlimit="3.8637" stroke-width="1.0001"/>
    <path d="m452.46 333.57-0.712 12.344" fill="none" stroke="#fff" stroke-linecap="round" stroke-linejoin="round" stroke-miterlimit="3.8637" stroke-width="1.0001"/>
    <path d="m465.32 348.56-0.84 6.187" fill="none" stroke="#fff" stroke-linecap="round" stroke-linejoin="round" stroke-miterlimit="3.8637" stroke-width="1.0001"/>
</svg>
